<svg version="1.2" xmlns="http://www.w3.org/2000/svg" viewBox="0 0 702 702" width="702" height="702">
	<title>frame-violet-3-svg</title>
	<defs>
		<linearGradient id="g1" x1="15.4" y1="15.8" x2="641.9" y2="642.3" gradientUnits="userSpaceOnUse">
			<stop offset="0" stop-color="#004cbe"/>
			<stop offset=".3" stop-color="#a854d0"/>
			<stop offset=".6" stop-color="#8dc8d9"/>
			<stop offset=".7" stop-color="#0098b2"/>
			<stop offset=".9" stop-color="#438ba1"/>
			<stop offset="1" stop-color="#00808d"/>
		</linearGradient>
	</defs>
	<style>
		.s0 { fill: url(#g1) } 
	</style>
	<g id="Layer">
		<path id="Layer" class="s0" d="m567 700.5h-550.5c-4.4 0-8.6-1.7-11.7-4.8-3.1-3.1-4.8-7.3-4.8-11.7v-550c0-4.4 1.7-8.6 4.8-11.7l117-116.9c1.5-1.5 3.4-2.8 5.4-3.6 2-0.8 4.1-1.3 6.3-1.3h550c4.4 0 8.6 1.8 11.7 4.9 3.1 3.1 4.8 7.3 4.8 11.7v551.4c0 4.4-1.7 8.6-4.8 11.7l-116.4 115.5c-1.6 1.5-3.4 2.8-5.4 3.6-2 0.8-4.2 1.3-6.4 1.2z"/>
	</g>
</svg>