<svg width="680" height="681" viewBox="0 0 680 681" fill="none" xmlns="http://www.w3.org/2000/svg">
<path d="M0 675.19V122.57C0.00028119 121.247 0.525302 119.977 1.45999 119.04L118.85 1.66019C119.785 0.72183 121.055 0.193119 122.38 0.190186H675C676.326 0.190186 677.598 0.716981 678.536 1.65466C679.473 2.59234 680 3.8641 680 5.19019V557.81C680.001 558.467 679.873 559.118 679.622 559.726C679.372 560.333 679.004 560.885 678.54 561.35L561.15 678.73C560.213 679.665 558.944 680.19 557.62 680.19H5C3.67392 680.19 2.40216 679.663 1.46448 678.726C0.526796 677.788 0 676.516 0 675.19V675.19Z" fill="url(#paint0_linear_113_2586)"/>
<defs>
<linearGradient id="paint0_linear_113_2586" x1="36.2" y1="36.3902" x2="675.3" y2="675.49" gradientUnits="userSpaceOnUse">
<stop/>
<stop offset="1" stop-color="#3E3A39"/>
</linearGradient>
</defs>
</svg>
