<svg width="294" height="198" viewBox="0 0 294 198" fill="none" xmlns="http://www.w3.org/2000/svg">
<path d="M0 190.944V67.4123C0.0272625 65.6444 0.753612 63.9591 2.02015 62.7254L62.9678 1.91904C64.2093 0.688924 65.8867 -0.00076065 67.6345 6.2956e-07H287.204C288.951 6.2956e-07 290.626 0.693851 291.861 1.92891C293.096 3.16396 293.79 4.83907 293.79 6.5857V132.703C293.797 133.594 293.622 134.477 293.275 135.297C292.927 136.117 292.415 136.857 291.77 137.471L230.903 195.712C229.672 196.886 228.038 197.544 226.337 197.55H6.60592C4.85393 197.55 3.17367 196.854 1.93482 195.615C0.69598 194.377 0 192.696 0 190.944Z" fill="url(#paint0_linear_510_1944)"/>
<defs>
<linearGradient id="paint0_linear_510_1944" x1="0" y1="98.7649" x2="293.709" y2="98.7649" gradientUnits="userSpaceOnUse">
<stop stop-color="#BDBDBD"/>
<stop offset="1" stop-color="white"/>
</linearGradient>
</defs>
</svg>
