<svg width="700" height="701" viewBox="0 0 700 701" fill="none" xmlns="http://www.w3.org/2000/svg">
<path d="M568 700.459H16.5333C12.1459 700.452 7.94079 698.704 4.84101 695.599C1.74124 692.494 -5.93423e-06 688.286 0 683.899L0 134C0.00184469 129.608 1.74546 125.396 4.84833 122.288L122.315 5.38934C123.848 3.85254 125.669 2.63308 127.674 1.80114C129.679 0.969206 131.829 0.541062 134 0.541016H683.358C687.745 0.548232 691.95 2.2961 695.05 5.40098C698.15 8.50586 699.891 12.7139 699.891 17.1012V568.5C699.889 572.892 698.146 577.104 695.043 580.212L579.685 695.611C578.152 697.148 576.33 698.367 574.325 699.199C572.32 700.031 570.171 700.459 568 700.459Z" fill="url(#paint0_linear_510_1947)"/>
<defs>
<linearGradient id="paint0_linear_510_1947" x1="15.3891" y1="15.8212" x2="641.794" y2="642.253" gradientUnits="userSpaceOnUse">
<stop/>
<stop offset="1" stop-color="#3E3A39"/>
</linearGradient>
</defs>
</svg>
