<svg width="294" height="198" viewBox="0 0 294 198" fill="none" xmlns="http://www.w3.org/2000/svg">
<path d="M0.110352 191V67.43C0.11246 65.6777 0.810254 63.998 2.05035 62.76L63.0504 1.93001C63.662 1.31764 64.3885 0.831946 65.1881 0.500764C65.9878 0.169583 66.8449 -0.000587087 67.7104 1.52176e-06H287.3C288.167 1.52176e-06 289.025 0.170716 289.826 0.502397C290.627 0.834078 291.354 1.32024 291.967 1.93311C292.58 2.54597 293.066 3.27355 293.398 4.0743C293.73 4.87505 293.9 5.73328 293.9 6.60001V132.76C293.905 133.647 293.73 134.526 293.387 135.344C293.043 136.162 292.537 136.902 291.9 137.52L231 195.77C229.775 196.948 228.14 197.604 226.44 197.6H6.71039C4.95996 197.6 3.2812 196.905 2.04346 195.667C0.805717 194.429 0.110352 192.75 0.110352 191V191Z" fill="url(#paint0_linear_25_19903)"/>
<defs>
<linearGradient id="paint0_linear_25_19903" x1="0.110352" y1="98.8" x2="293.9" y2="98.8" gradientUnits="userSpaceOnUse">
<stop/>
<stop offset="1" stop-color="#3E3A39"/>
</linearGradient>
</defs>
</svg>
