<svg width="306" height="207" viewBox="0 0 306 207" fill="none" xmlns="http://www.w3.org/2000/svg">
<path d="M0.870149 199.19V70.8501C0.867395 69.9498 1.04269 69.0578 1.38593 68.2254C1.72916 67.3931 2.23357 66.6368 2.87015 66.0001L66.1902 2.8201C67.4768 1.54147 69.2162 0.822668 71.0302 0.820098H299.13C300.031 0.817466 300.924 0.992702 301.758 1.33577C302.591 1.67883 303.349 2.18299 303.987 2.81933C304.625 3.45568 305.131 4.21171 305.477 5.0441C305.822 5.87648 306 6.76886 306 7.6701V138.67C306.005 139.604 305.819 140.529 305.454 141.388C305.09 142.248 304.554 143.024 303.88 143.67L240.65 204.16C239.372 205.378 237.675 206.058 235.91 206.06H7.72016C6.81891 206.06 5.92653 205.882 5.09415 205.537C4.26176 205.191 3.50573 204.685 2.86939 204.047C2.23304 203.409 1.7289 202.651 1.38584 201.818C1.04277 200.984 0.867518 200.091 0.870149 199.19Z" fill="url(#paint0_linear_25_19902)"/>
<defs>
<linearGradient id="paint0_linear_25_19902" x1="46.3102" y1="203.71" x2="203.45" y2="56.6601" gradientUnits="userSpaceOnUse">
<stop/>
<stop offset="1" stop-color="#3E3A39"/>
</linearGradient>
</defs>
</svg>
