<svg width="294" height="198" viewBox="0 0 294 198" fill="none" xmlns="http://www.w3.org/2000/svg">
<path d="M0 190.997V67.4308C0.02727 65.6624 0.753819 63.9767 2.0207 62.7426L62.9853 1.91957C64.2272 0.689113 65.9049 -0.000760859 67.6531 6.29733e-07H287.202C288.949 6.29733e-07 290.625 0.694042 291.86 1.92944C293.096 3.16483 293.79 4.8404 293.79 6.58751V132.74C293.797 133.631 293.622 134.514 293.274 135.334C292.927 136.154 292.414 136.894 291.769 137.509L230.885 195.766C229.654 196.94 228.02 197.598 226.319 197.604H6.60773C4.85526 197.604 3.17454 196.908 1.93535 195.669C0.696172 194.43 0 192.749 0 190.997Z" fill="url(#paint0_linear_509_1477)"/>
<defs>
<linearGradient id="paint0_linear_509_1477" x1="-176.912" y1="98.792" x2="704.457" y2="98.792" gradientUnits="userSpaceOnUse">
<stop stop-color="#004CBE"/>
<stop offset="0.33" stop-color="#A854D0"/>
<stop offset="0.57" stop-color="#8DC8D9"/>
<stop offset="0.67" stop-color="#0098B2"/>
<stop offset="0.91" stop-color="#438BA1"/>
<stop offset="1" stop-color="#00808D"/>
</linearGradient>
</defs>
</svg>
