<svg width="734" height="735" viewBox="0 0 734 735" fill="none" xmlns="http://www.w3.org/2000/svg">
<g filter="url(#filter0_d_25_19905)">
<path d="M701 570.88V11.1902C701 8.53802 699.946 5.99449 698.071 4.11913C696.196 2.24376 693.652 1.19019 691 1.19019H131.31C128.658 1.19075 126.115 2.2447 124.24 4.12019L3.92999 124.43C2.0545 126.305 1.00057 128.848 1 131.5V691.19C1 693.842 2.05356 696.386 3.92892 698.261C5.80429 700.137 8.34784 701.19 11 701.19H570.69C573.342 701.19 575.885 700.136 577.76 698.26L698.07 577.95C699.945 576.075 700.999 573.532 701 570.88Z" fill="url(#paint0_linear_25_19905)"/>
</g>
<defs>
<filter id="filter0_d_25_19905" x="0" y="0.190186" width="734" height="734" filterUnits="userSpaceOnUse" color-interpolation-filters="sRGB">
<feFlood flood-opacity="0" result="BackgroundImageFix"/>
<feColorMatrix in="SourceAlpha" type="matrix" values="0 0 0 0 0 0 0 0 0 0 0 0 0 0 0 0 0 0 127 0" result="hardAlpha"/>
<feOffset dx="16" dy="16"/>
<feGaussianBlur stdDeviation="8.5"/>
<feComposite in2="hardAlpha" operator="out"/>
<feColorMatrix type="matrix" values="0 0 0 0 0 0 0 0 0 0 0 0 0 0 0 0 0 0 0.2 0"/>
<feBlend mode="normal" in2="BackgroundImageFix" result="effect1_dropShadow_25_19905"/>
<feBlend mode="normal" in="SourceGraphic" in2="effect1_dropShadow_25_19905" result="shape"/>
</filter>
<linearGradient id="paint0_linear_25_19905" x1="39.52" y1="39.7102" x2="694.77" y2="694.96" gradientUnits="userSpaceOnUse">
<stop stop-color="#807728"/>
<stop offset="0.17" stop-color="#D5CE9D"/>
<stop offset="0.22" stop-color="#D5CB98"/>
<stop offset="0.28" stop-color="#D3C28A"/>
<stop offset="0.34" stop-color="#D1B373"/>
<stop offset="0.36" stop-color="#D0AF6C"/>
<stop offset="0.41" stop-color="#A99351"/>
<stop offset="0.45" stop-color="#8B7D3C"/>
<stop offset="0.48" stop-color="#807534"/>
<stop offset="0.52" stop-color="#806F31"/>
<stop offset="0.57" stop-color="#805D25"/>
<stop offset="0.58" stop-color="#815E26"/>
<stop offset="0.69" stop-color="#A98048"/>
<stop offset="0.74" stop-color="#6E4C27"/>
<stop offset="0.77" stop-color="#4D3015"/>
<stop offset="0.85" stop-color="#6F4E20"/>
<stop offset="0.9" stop-color="#805D25"/>
<stop offset="1" stop-color="#A98048"/>
</linearGradient>
</defs>
</svg>
