<svg width="58" height="59" viewBox="0 0 58 59" fill="none" xmlns="http://www.w3.org/2000/svg">
<path d="M49.2295 0.929688H9.12952C4.37434 0.929688 0.519531 4.7845 0.519531 9.53967V49.6396C0.519531 54.3948 4.37434 58.2498 9.12952 58.2498H49.2295C53.9847 58.2498 57.8395 54.3948 57.8395 49.6396V9.53967C57.8395 4.7845 53.9847 0.929688 49.2295 0.929688Z" fill="white"/>
<path d="M29.1798 12.5898C25.8175 12.5898 22.5307 13.5868 19.7351 15.4548C16.9395 17.3228 14.7604 19.9779 13.4738 23.0842C12.1871 26.1906 11.8504 29.6087 12.5063 32.9064C13.1623 36.204 14.7814 39.2331 17.1589 41.6106C19.5364 43.9881 22.5656 45.6072 25.8633 46.2632C29.161 46.9191 32.5791 46.5825 35.6854 45.2958C38.7918 44.0091 41.4467 41.8302 43.3147 39.0345C45.1827 36.2389 46.1798 32.9521 46.1798 29.5898C46.1798 25.0812 44.3887 20.7571 41.2006 17.569C38.0124 14.3809 33.6885 12.5898 29.1798 12.5898ZM39.6698 26.3699L28.3497 37.6898C27.9376 38.099 27.3805 38.3286 26.7998 38.3286C26.2191 38.3286 25.6619 38.099 25.2498 37.6898L18.8397 31.2798C18.6144 31.0807 18.4323 30.8376 18.3046 30.5654C18.1769 30.2932 18.1063 29.9978 18.0973 29.6973C18.0882 29.3967 18.1409 29.0975 18.2519 28.8181C18.363 28.5387 18.5302 28.2851 18.7432 28.0729C18.9561 27.8606 19.2102 27.6943 19.49 27.5841C19.7697 27.4739 20.0691 27.4222 20.3696 27.4323C20.6701 27.4423 20.9653 27.5137 21.2371 27.6423C21.5088 27.7709 21.7514 27.9538 21.9497 28.1798L26.7998 33.0298L36.5598 23.2698C36.979 22.8995 37.5235 22.7028 38.0825 22.7196C38.6416 22.7365 39.1732 22.9656 39.5693 23.3605C39.9655 23.7553 40.1963 24.2863 40.215 24.8453C40.2336 25.4043 40.0387 25.9495 39.6698 26.3699Z" fill="url(#paint0_linear_510_1631)"/>
<defs>
<linearGradient id="paint0_linear_510_1631" x1="17.1597" y1="41.6098" x2="41.1997" y2="17.5698" gradientUnits="userSpaceOnUse">
<stop/>
<stop offset="1" stop-color="#3E3A39"/>
</linearGradient>
</defs>
</svg>
