<svg width="58" height="59" viewBox="0 0 58 59" fill="none" xmlns="http://www.w3.org/2000/svg">
<path d="M48.9404 0.929688H8.84045C4.08528 0.929688 0.230469 4.7845 0.230469 9.53967V49.6396C0.230469 54.3948 4.08528 58.2498 8.84045 58.2498H48.9404C53.6956 58.2498 57.5505 54.3948 57.5505 49.6396V9.53967C57.5505 4.7845 53.6956 0.929688 48.9404 0.929688Z" fill="#AAAAAA"/>
<path d="M18.3301 39.1489H39.9002C40.1061 39.1515 40.3087 39.0968 40.4853 38.9908C40.6619 38.8848 40.8056 38.7319 40.9002 38.5489C40.9971 38.3698 41.0419 38.1672 41.0296 37.964C41.0172 37.7607 40.948 37.5649 40.8301 37.3989L36.1702 30.6489C35.9671 30.3367 35.688 30.0812 35.3592 29.9063C35.0303 29.7314 34.6626 29.6428 34.2902 29.6489C33.9237 29.6523 33.5635 29.7452 33.2411 29.9195C32.9187 30.0938 32.6437 30.3441 32.4401 30.6489L31.1201 32.739L27.4202 27.3889C27.2164 27.0774 26.9372 26.8224 26.6085 26.6475C26.2799 26.4727 25.9124 26.3837 25.5402 26.3889C25.1734 26.3905 24.8126 26.4828 24.4899 26.6572C24.1672 26.8316 23.8924 27.0829 23.6901 27.3889L17.3902 37.2889C17.2825 37.4586 17.2224 37.6541 17.2163 37.8549C17.2102 38.0558 17.2584 38.2545 17.3555 38.4304C17.4526 38.6063 17.5953 38.7528 17.7686 38.8546C17.9418 38.9564 18.1392 39.0096 18.3401 39.0089L18.3301 39.1489Z" fill="#3D3D3D"/>
<path d="M33.3802 27.3195C33.9542 27.3215 34.5159 27.1531 34.9941 26.8356C35.4724 26.5182 35.8456 26.0659 36.0667 25.5362C36.2877 25.0065 36.3465 24.4231 36.2357 23.8599C36.125 23.2967 35.8495 22.7791 35.4443 22.3725C35.0392 21.9659 34.5225 21.6887 33.9597 21.576C33.3969 21.4633 32.8133 21.5201 32.2828 21.7393C31.7523 21.9585 31.2988 22.3302 30.9797 22.8073C30.6606 23.2844 30.4902 23.8455 30.4902 24.4195C30.4902 25.1869 30.7944 25.923 31.3361 26.4666C31.8778 27.0102 32.6129 27.3169 33.3802 27.3195Z" fill="#3D3D3D"/>
<path d="M11.6299 14.3992V44.7692C11.6299 45.2227 11.8101 45.6577 12.1307 45.9784C12.4514 46.2991 12.8863 46.4792 13.3398 46.4792H44.4398C44.6639 46.4793 44.8859 46.4349 45.0928 46.3489C45.2997 46.2628 45.4875 46.1367 45.6455 45.9778C45.8035 45.8189 45.9285 45.6303 46.0133 45.4229C46.0981 45.2154 46.1412 44.9933 46.1399 44.7692V14.3992C46.1399 13.9483 45.9608 13.516 45.642 13.1971C45.3232 12.8783 44.8907 12.6992 44.4398 12.6992H13.3398C12.8881 12.6992 12.4547 12.878 12.1343 13.1965C11.8139 13.5151 11.6325 13.9474 11.6299 14.3992ZM40.9999 43.0692H16.7198C16.2681 43.0666 15.8357 42.8852 15.5172 42.5648C15.1987 42.2444 15.0199 41.811 15.0199 41.3593V17.8092C15.0199 17.3583 15.199 16.926 15.5178 16.6072C15.8366 16.2884 16.269 16.1093 16.7198 16.1093H40.9999C41.4507 16.1093 41.8831 16.2884 42.2019 16.6072C42.5207 16.926 42.6998 17.3583 42.6998 17.8092V41.3593C42.6998 41.811 42.521 42.2444 42.2025 42.5648C41.884 42.8852 41.4517 43.0666 40.9999 43.0692Z" fill="#3D3D3D"/>
</svg>
