<svg width="58" height="59" viewBox="0 0 58 59" fill="none" xmlns="http://www.w3.org/2000/svg">
<path d="M48.9404 0.929932H8.84045C4.08528 0.929932 0.230469 4.78475 0.230469 9.53992V49.6399C0.230469 54.3951 4.08528 58.25 8.84045 58.25H48.9404C53.6956 58.25 57.5505 54.3951 57.5505 49.6399V9.53992C57.5505 4.78475 53.6956 0.929932 48.9404 0.929932Z" fill="#3D3938"/>
<path d="M18.3301 39.1501H39.9002C40.1061 39.1527 40.3087 39.098 40.4853 38.992C40.6619 38.8861 40.8056 38.7331 40.9002 38.5501C40.9971 38.371 41.0419 38.1684 41.0296 37.9652C41.0172 37.7619 40.948 37.5661 40.8301 37.4001L36.1702 30.6501C35.9671 30.3379 35.688 30.0825 35.3592 29.9076C35.0303 29.7327 34.6626 29.644 34.2902 29.6501C33.9237 29.6535 33.5635 29.7465 33.2411 29.9207C32.9187 30.095 32.6437 30.3454 32.4401 30.6501L31.1201 32.7402L27.4202 27.3901C27.2164 27.0786 26.9372 26.8236 26.6085 26.6488C26.2799 26.474 25.9124 26.385 25.5402 26.3901C25.1734 26.3918 24.8126 26.484 24.4899 26.6584C24.1672 26.8328 23.8924 27.0841 23.6901 27.3901L17.3902 37.2901C17.2825 37.4598 17.2224 37.6553 17.2163 37.8562C17.2102 38.057 17.2584 38.2557 17.3555 38.4316C17.4526 38.6075 17.5953 38.754 17.7686 38.8558C17.9418 38.9576 18.1392 39.0109 18.3401 39.0101L18.3301 39.1501Z" fill="#221D1C"/>
<path d="M33.3802 27.32C33.9542 27.322 34.5159 27.1536 34.9941 26.8361C35.4724 26.5187 35.8456 26.0664 36.0667 25.5367C36.2877 25.007 36.3465 24.4236 36.2357 23.8604C36.125 23.2972 35.8495 22.7796 35.4443 22.373C35.0392 21.9664 34.5225 21.6892 33.9597 21.5765C33.3969 21.4638 32.8133 21.5206 32.2828 21.7398C31.7523 21.959 31.2988 22.3307 30.9797 22.8078C30.6606 23.2849 30.4902 23.846 30.4902 24.42C30.4902 25.1874 30.7944 25.9235 31.3361 26.4671C31.8778 27.0107 32.6129 27.3174 33.3802 27.32Z" fill="#221D1C"/>
<path d="M11.6299 14.3999V44.7699C11.6299 45.2234 11.8101 45.6584 12.1307 45.9791C12.4514 46.2998 12.8863 46.48 13.3398 46.48H44.4398C44.6639 46.48 44.8859 46.4357 45.0928 46.3496C45.2997 46.2636 45.4875 46.1374 45.6455 45.9785C45.8035 45.8196 45.9285 45.631 46.0133 45.4236C46.0981 45.2162 46.1412 44.994 46.1399 44.7699V14.3999C46.1399 13.949 45.9608 13.5167 45.642 13.1979C45.3232 12.8791 44.8907 12.7 44.4398 12.7H13.3398C12.8881 12.6999 12.4547 12.8787 12.1343 13.1973C11.8139 13.5158 11.6325 13.9481 11.6299 14.3999ZM40.9999 43.0699H16.7198C16.2681 43.0673 15.8357 42.886 15.5172 42.5656C15.1987 42.2451 15.0199 41.8118 15.0199 41.36V17.8099C15.0199 17.3591 15.199 16.9267 15.5178 16.6079C15.8366 16.2891 16.269 16.11 16.7198 16.11H40.9999C41.4507 16.11 41.8831 16.2891 42.2019 16.6079C42.5207 16.9267 42.6998 17.3591 42.6998 17.8099V41.36C42.6998 41.8118 42.521 42.2451 42.2025 42.5656C41.884 42.886 41.4517 43.0673 40.9999 43.0699Z" fill="#221D1C"/>
</svg>
