<svg width="58" height="59" viewBox="0 0 58 59" fill="none" xmlns="http://www.w3.org/2000/svg">
<path d="M49.2295 0.929932H9.12952C4.37434 0.929932 0.519531 4.78475 0.519531 9.53992V49.6399C0.519531 54.3951 4.37434 58.25 9.12952 58.25H49.2295C53.9847 58.25 57.8395 54.3951 57.8395 49.6399V9.53992C57.8395 4.78475 53.9847 0.929932 49.2295 0.929932Z" fill="white"/>
<path d="M29.1798 12.5901C25.8175 12.5901 22.5307 13.5871 19.7351 15.4551C16.9395 17.3231 14.7604 19.9781 13.4738 23.0845C12.1871 26.1908 11.8504 29.6089 12.5063 32.9066C13.1623 36.2043 14.7814 39.2333 17.1589 41.6108C19.5364 43.9883 22.5656 45.6075 25.8633 46.2634C29.161 46.9194 32.5791 46.5827 35.6854 45.296C38.7918 44.0093 41.4467 41.8304 43.3147 39.0348C45.1827 36.2392 46.1798 32.9524 46.1798 29.5901C46.1798 25.0814 44.3887 20.7573 41.2006 17.5692C38.0124 14.3811 33.6885 12.5901 29.1798 12.5901ZM39.6698 26.3701L28.3497 37.6901C27.9376 38.0992 27.3805 38.3289 26.7998 38.3289C26.2191 38.3289 25.6619 38.0992 25.2498 37.6901L18.8397 31.28C18.6144 31.081 18.4323 30.8379 18.3046 30.5657C18.1769 30.2935 18.1063 29.998 18.0973 29.6975C18.0882 29.397 18.1409 29.0977 18.2519 28.8184C18.363 28.539 18.5302 28.2854 18.7432 28.0731C18.9561 27.8609 19.2102 27.6945 19.49 27.5844C19.7697 27.4742 20.0691 27.4225 20.3696 27.4325C20.6701 27.4425 20.9653 27.514 21.2371 27.6426C21.5088 27.7712 21.7514 27.9541 21.9497 28.1801L26.7998 33.03L36.5598 23.27C36.979 22.8997 37.5235 22.703 38.0825 22.7198C38.6416 22.7367 39.1732 22.9659 39.5693 23.3607C39.9655 23.7556 40.1963 24.2866 40.215 24.8456C40.2336 25.4046 40.0387 25.9497 39.6698 26.3701Z" fill="url(#paint0_linear_26_20233)"/>
<defs>
<linearGradient id="paint0_linear_26_20233" x1="17.1597" y1="41.6101" x2="41.1997" y2="17.57" gradientUnits="userSpaceOnUse">
<stop/>
<stop offset="1" stop-color="#3E3A39"/>
</linearGradient>
</defs>
</svg>
