<svg width="58" height="59" viewBox="0 0 58 59" fill="none" xmlns="http://www.w3.org/2000/svg">
<path d="M49.0801 0.929688H8.9801C4.22493 0.929688 0.370117 4.7845 0.370117 9.53967V49.6396C0.370117 54.3948 4.22493 58.2498 8.9801 58.2498H49.0801C53.8353 58.2498 57.6901 54.3948 57.6901 49.6396V9.53967C57.6901 4.7845 53.8353 0.929688 49.0801 0.929688Z" fill="#C8C8C8"/>
<path d="M29.0003 16.3301C26.3777 16.3301 23.814 17.1078 21.6334 18.5648C19.4528 20.0218 17.7533 22.0928 16.7496 24.5157C15.746 26.9387 15.4834 29.6048 15.995 32.177C16.5066 34.7492 17.7696 37.1119 19.624 38.9663C21.4785 40.8208 23.8412 42.0837 26.4133 42.5953C28.9855 43.107 31.6517 42.8443 34.0746 41.8407C36.4975 40.8371 38.5685 39.1375 40.0255 36.9569C41.4826 34.7763 42.2603 32.2127 42.2603 29.5901C42.2603 26.0733 40.8632 22.7006 38.3765 20.2139C35.8897 17.7271 32.517 16.3301 29.0003 16.3301ZM28.8903 35.0801C29.7228 35.0826 30.5448 34.8946 31.2936 34.5306C32.0423 34.1667 32.6979 33.6363 33.2102 32.9801C33.5523 32.5465 34.0528 32.2665 34.6013 32.2018C35.1499 32.1371 35.7016 32.2929 36.1353 32.635C36.5689 32.9771 36.8489 33.4776 36.9136 34.0261C36.9783 34.5747 36.8224 35.1264 36.4802 35.5601C35.2289 37.147 33.5109 38.3012 31.5686 38.8595C29.6263 39.4178 27.5576 39.3522 25.6546 38.672C23.7515 37.9918 22.11 36.7313 20.9617 35.0682C19.8134 33.4052 19.2162 31.4236 19.2543 29.403C19.2924 27.3823 19.964 25.4247 21.1742 23.8062C22.3845 22.1876 24.0723 20.9899 25.9996 20.382C27.927 19.774 29.9966 19.7865 31.9165 20.4177C33.8364 21.0489 35.5096 22.267 36.7002 23.9C37.0251 24.3469 37.1592 24.9046 37.0729 25.4503C36.9866 25.996 36.6871 26.4852 36.2402 26.8101C35.7934 27.1349 35.2357 27.269 34.69 27.1827C34.1442 27.0965 33.6551 26.797 33.3302 26.3501C32.7765 25.5926 32.0379 24.9897 31.1848 24.5989C30.3318 24.2081 29.3927 24.0425 28.4574 24.1178C27.5221 24.1931 26.6218 24.507 25.8423 25.0293C25.0628 25.5516 24.4301 26.265 24.0048 27.1013C23.5794 27.9377 23.3755 28.8691 23.4125 29.8066C23.4495 30.7442 23.7262 31.6567 24.2162 32.4569C24.7062 33.2571 25.3932 33.9185 26.2114 34.3777C27.0297 34.8369 27.952 35.0787 28.8903 35.0801Z" fill="#6C6C6C"/>
<path d="M28.9998 47.7399C25.4077 47.7399 21.8962 46.6746 18.9096 44.6787C15.923 42.6828 13.5954 39.8461 12.2213 36.5272C10.8471 33.2083 10.488 29.5564 11.1895 26.0334C11.891 22.5104 13.6216 19.2746 16.1623 16.7353C18.703 14.196 21.9397 12.4672 25.4631 11.7677C28.9864 11.0681 32.6381 11.4291 35.9562 12.8051C39.2744 14.1812 42.1099 16.5103 44.1042 19.498C46.0984 22.4857 47.1618 25.9978 47.1599 29.5899C47.1546 34.4037 45.2392 39.0187 41.8344 42.4216C38.4296 45.8245 33.8136 47.7373 28.9998 47.7399ZM28.9998 13.7399C25.865 13.7399 22.8006 14.6695 20.194 16.4111C17.5875 18.1527 15.556 20.6282 14.3564 23.5244C13.1567 26.4206 12.8428 29.6075 13.4544 32.6821C14.066 35.7567 15.5755 38.5809 17.7922 40.7976C20.0088 43.0142 22.8331 44.5238 25.9077 45.1353C28.9823 45.7469 32.1692 45.433 35.0654 44.2334C37.9616 43.0337 40.437 41.0022 42.1787 38.3957C43.9203 35.7892 44.8498 32.7248 44.8498 29.5899C44.8445 25.3879 43.1729 21.3594 40.2016 18.3881C37.2303 15.4168 33.2019 13.7452 28.9998 13.7399Z" fill="#6C6C6C"/>
</svg>
