<svg width="58" height="59" viewBox="0 0 58 59" fill="none" xmlns="http://www.w3.org/2000/svg">
<path d="M49.3701 0.929688H9.27014C4.51497 0.929688 0.660156 4.7845 0.660156 9.53967V49.6396C0.660156 54.3948 4.51497 58.2498 9.27014 58.2498H49.3701C54.1253 58.2498 57.9801 54.3948 57.9801 49.6396V9.53967C57.9801 4.7845 54.1253 0.929688 49.3701 0.929688Z" fill="#AAAAAA"/>
<path d="M29.3201 41.07C26.2723 41.07 23.293 40.1662 20.7589 38.473C18.2247 36.7797 16.2496 34.373 15.0832 31.5572C13.9169 28.7414 13.6117 25.6429 14.2063 22.6536C14.8009 19.6644 16.2685 16.9186 18.4237 14.7635C20.5788 12.6084 23.3245 11.1407 26.3138 10.5461C29.303 9.9515 32.4016 10.2567 35.2174 11.423C38.0332 12.5894 40.4399 14.5645 42.1331 17.0987C43.8264 19.6329 44.7302 22.6122 44.7302 25.66C44.7275 29.7462 43.1032 33.6643 40.2138 36.5537C37.3245 39.443 33.4063 41.0674 29.3201 41.07ZM29.3201 15.14C27.2395 15.14 25.2055 15.757 23.4755 16.9129C21.7455 18.0689 20.3973 19.712 19.601 21.6342C18.8048 23.5565 18.5965 25.6717 19.0024 27.7124C19.4083 29.753 20.4102 31.6276 21.8814 33.0988C23.3527 34.5701 25.2272 35.5719 27.2679 35.9779C29.3086 36.3838 31.4237 36.1755 33.346 35.3792C35.2683 34.583 36.9113 33.2346 38.0672 31.5046C39.2232 29.7746 39.8402 27.7406 39.8402 25.66C39.8296 22.8768 38.7166 20.2114 36.7448 18.2471C34.7731 16.2829 32.1033 15.18 29.3201 15.18V15.14Z" fill="#3D3D3D"/>
<path d="M37.6698 40.6602V48.8802L29.3197 46.4202L20.9697 48.8802V40.6602C23.4971 42.159 26.3813 42.95 29.3197 42.95C32.2581 42.95 35.1424 42.159 37.6698 40.6602Z" fill="#3D3D3D"/>
</svg>
