<svg width="62" height="23" viewBox="0 0 62 23" fill="none" xmlns="http://www.w3.org/2000/svg">
<path d="M15.401 5.73792L14.2009 4.54791C14.0298 4.37436 13.8258 4.23658 13.601 4.14252C13.3761 4.04846 13.1348 4 12.891 4C12.6472 4 12.4058 4.04846 12.1809 4.14252C11.956 4.23658 11.7521 4.37436 11.5809 4.54791L10.4609 5.66791L14.281 9.47794L15.401 8.35791C15.7466 8.00953 15.9406 7.53866 15.9406 7.04791C15.9406 6.55716 15.7466 6.0863 15.401 5.73792Z" fill="white"/>
<path d="M0 16.1279V19.9479H3.81995L13.24 10.5179L9.41992 6.70795L0 16.1279Z" fill="white"/>
<path d="M27.8207 18H34.7487V16.752H29.3087V12.464H33.7407V11.2H29.3087V7.52H34.5727V6.272H27.8207V18ZM37.2426 18H40.2506C43.7866 18 45.7066 15.824 45.7066 12.096C45.7066 8.368 43.7866 6.272 40.1706 6.272H37.2426V18ZM38.7306 16.784V7.488H40.0586C42.8106 7.488 44.1866 9.12 44.1866 12.096C44.1866 15.072 42.8106 16.784 40.0586 16.784H38.7306ZM48.2582 18H49.7462V6.272H48.2582V18ZM55.3777 18H56.8817V7.52H60.4177V6.272H51.8417V7.52H55.3777V18Z" fill="white"/>
</svg>
