<svg width="31" height="31" viewBox="0 0 31 31" fill="none" xmlns="http://www.w3.org/2000/svg">
<path d="M30.1299 15.98C30.1355 13.1111 29.3183 10.3008 27.7752 7.88229C26.2321 5.46379 24.0279 3.53853 21.4238 2.33478C18.8197 1.13103 15.925 0.69928 13.083 1.09076C10.241 1.48224 7.57079 2.68051 5.38913 4.54349C3.20747 6.40646 1.60588 8.85602 0.77414 11.6017C-0.0576009 14.3473 -0.0845634 17.2739 0.696503 20.0343C1.47757 22.7948 3.03388 25.2734 5.18088 27.1762C7.32788 29.079 9.97558 30.3262 12.8099 30.77V20.31H8.99985V15.98H12.7999V12.68C12.7999 8.92996 15.0398 6.84995 18.4598 6.84995C19.5824 6.86581 20.7023 6.96611 21.8099 7.14996V10.83H19.9199C19.5982 10.7884 19.2713 10.8194 18.9632 10.9208C18.6552 11.0222 18.3738 11.1914 18.1397 11.4159C17.9057 11.6403 17.7249 11.9145 17.6107 12.218C17.4965 12.5216 17.4517 12.8468 17.4798 13.17V15.98H21.6399L20.9698 20.31H17.4798V30.77C21.0025 30.2112 24.2107 28.4155 26.529 25.705C28.8473 22.9945 30.124 19.5466 30.1299 15.98Z" fill="#1877EF"/>
</svg>
