<?xml version="1.0" encoding="utf-8"?>
<!-- Generator: Adobe Illustrator 25.3.1, SVG Export Plug-In . SVG Version: 6.00 Build 0)  -->
<svg version="1.1" id="レイヤー_1" xmlns="http://www.w3.org/2000/svg" xmlns:xlink="http://www.w3.org/1999/xlink" x="0px"
	 y="0px" viewBox="0 0 387.99 102.05" style="enable-background:new 0 0 387.99 102.05;" xml:space="preserve">
<style type="text/css">
	.st0{fill:#313232;}
	.st1{fill:#E13A31;}
	.st2{fill:#FFFFFF;}
</style>
<g>
	<path class="st0" d="M159.15,44.72h-0.28c0,0.09,0.19,8.07,0.19,16.51v22.26h-15.58V18.56h15.77l27.64,38.03h0.28
		c0-0.09-0.09-8.44-0.09-15.49V18.56h15.58v64.93h-15.86L159.15,44.72z"/>
	<path class="st0" d="M228.2,72.73l-3.9,10.76h-16.42l25.04-64.93h17.72l25.14,64.93h-16.7l-3.9-10.76H228.2z M245.45,45.64
		c-2.04-5.38-3.52-9.46-3.62-9.55h-0.28c-0.09,0.09-1.58,4.08-3.62,9.46l-4.64,12.98h16.79L245.45,45.64z"/>
	<path class="st0" d="M305.73,33.03v50.46h-15.58V33.03H270.3V18.56h55.28v14.47H305.73z"/>
	<path class="st0" d="M340.41,72.73l-3.9,10.76H320.1l25.04-64.93h17.72l25.14,64.93h-16.7l-3.9-10.76H340.41z M357.66,45.64
		c-2.04-5.38-3.52-9.46-3.62-9.55h-0.28c-0.09,0.09-1.58,4.08-3.62,9.46l-4.64,12.98h16.79L357.66,45.64z"/>
	<path class="st1" d="M112.41,26.99c0-5.1,4.17-9.28,9.28-9.28l0,0c5.1,0,9.28,4.17,9.28,9.28v48.08c0,5.1-4.17,9.28-9.28,9.28l0,0
		c-5.1,0-9.28-4.17-9.28-9.28V26.99z"/>
	<g>
		<circle class="st1" cx="51.02" cy="51.02" r="51.02"/>
		<circle class="st2" cx="51.02" cy="51.02" r="9.28"/>
		<g>
			<path class="st2" d="M64.94,26.99c0-5.1,4.17-9.28,9.28-9.28l0,0c5.1,0,9.28,4.17,9.28,9.28v48.08c0,5.1-4.17,9.28-9.28,9.28l0,0
				c-5.1,0-9.28-4.17-9.28-9.28V26.99z"/>
			<path class="st2" d="M18.55,26.99c0-5.1,4.17-9.28,9.28-9.28l0,0c5.1,0,9.28,4.17,9.28,9.28v48.08c0,5.1-4.17,9.28-9.28,9.28l0,0
				c-5.1,0-9.28-4.17-9.28-9.28V26.99z"/>
		</g>
	</g>
</g>
</svg>
