<svg width="152" height="40" viewBox="0 0 152 40" fill="none" xmlns="http://www.w3.org/2000/svg">
<path d="M62.3482 17.5218H62.2418C62.2418 17.5218 62.3163 20.7153 62.3163 23.9939V32.7654H56.2061V7.27063H62.3908L73.2168 22.1736H73.3232C73.3232 22.1736 73.3232 18.863 73.3232 16.106V7.27063H79.4228V32.7654H73.2168L62.3482 17.5218Z" fill="white"/>
<path d="M89.397 28.5075L87.8748 32.7655H81.4346L91.2493 7.32391H98.1898L108.036 32.7655H101.49L99.9462 28.5075H89.397ZM96.1566 17.8625C95.3582 15.7335 94.7728 14.158 94.7408 14.1261H94.6237C94.6237 14.1261 94.0063 15.7228 93.208 17.8305L91.4302 22.9295H98.0088L96.1566 17.8625Z" fill="white"/>
<path d="M119.767 12.9444V32.7654H113.667V12.9444H105.886V7.27063H127.548V12.9444H119.767Z" fill="white"/>
<path d="M133.35 28.5075L131.881 32.7655H125.494L135.298 7.32391H142.239L152 32.7655H145.454L143.931 28.5075H133.35ZM140.11 17.8625C139.311 15.7335 138.737 14.158 138.694 14.1261H138.587C138.587 14.1261 137.959 15.7335 137.204 17.8625L135.394 22.9401H141.973L140.11 17.8625Z" fill="white"/>
<path d="M44.0381 10.5811C44.0381 9.6156 44.4216 8.6896 45.1044 8.00686C45.7871 7.32411 46.7131 6.94055 47.6787 6.94055C48.6415 6.94616 49.5631 7.33186 50.243 8.0137C50.9228 8.69553 51.3058 9.6183 51.3086 10.5811V29.4121C51.3086 30.3758 50.9265 31.3002 50.2461 31.9827C49.5656 32.6651 48.6424 33.0499 47.6787 33.0527C46.714 33.0499 45.7896 32.6655 45.1075 31.9833C44.4254 31.3012 44.0409 30.3768 44.0381 29.4121V10.5811Z" fill="#CD3A31"/>
<path d="M19.9913 39.9826C31.0322 39.9826 39.9826 31.0322 39.9826 19.9913C39.9826 8.95045 31.0322 0 19.9913 0C8.95041 0 0 8.95045 0 19.9913C0 31.0322 8.95041 39.9826 19.9913 39.9826Z" fill="#CD3A31"/>
<path d="M19.9912 23.632C22.0018 23.632 23.6318 22.0021 23.6318 19.9914C23.6318 17.9808 22.0018 16.3508 19.9912 16.3508C17.9805 16.3508 16.3506 17.9808 16.3506 19.9914C16.3506 22.0021 17.9805 23.632 19.9912 23.632Z" fill="white"/>
<path d="M25.4307 10.5811C25.4335 9.61646 25.8179 8.69209 26.5001 8.00996C27.1822 7.32782 28.1066 6.94336 29.0713 6.94055C30.0341 6.94616 30.9557 7.33186 31.6356 8.0137C32.3154 8.69553 32.6984 9.6183 32.7012 10.5811V29.4121C32.7012 30.3758 32.3191 31.3002 31.6387 31.9827C30.9582 32.6651 30.035 33.0499 29.0713 33.0527C28.1066 33.0499 27.1822 32.6655 26.5001 31.9833C25.8179 31.3012 25.4335 30.3768 25.4307 29.4121V10.5811Z" fill="white"/>
<path d="M7.27051 10.5811C7.2705 9.61744 7.65262 8.69305 8.33306 8.01061C9.0135 7.32818 9.93676 6.94337 10.9005 6.94055C11.8651 6.94336 12.7895 7.32782 13.4716 8.00996C14.1538 8.69209 14.5382 9.61646 14.541 10.5811V29.4121C14.541 30.3777 14.1575 31.3037 13.4747 31.9864C12.792 32.6692 11.866 33.0527 10.9005 33.0527C9.93762 33.0471 9.01598 32.6614 8.33614 31.9796C7.65631 31.2978 7.2733 30.375 7.27051 29.4121V10.5811Z" fill="white"/>
</svg>
