<svg width="24" height="21" viewBox="0 0 24 21" fill="none" xmlns="http://www.w3.org/2000/svg">
<path d="M7.48999 20.0512C9.33146 20.0618 11.1568 19.707 12.8601 19.0072C14.5635 18.3074 16.111 17.2764 17.4131 15.9743C18.7153 14.6721 19.7461 13.1246 20.4459 11.4213C21.1457 9.71793 21.5006 7.89264 21.49 6.05117C21.49 5.84117 21.49 5.63128 21.49 5.42128C22.4537 4.72272 23.2865 3.85942 23.95 2.87123C23.0502 3.26741 22.0964 3.52696 21.12 3.64125C22.1493 3.02777 22.9205 2.06112 23.29 0.921283C22.3209 1.49106 21.2628 1.8933 20.16 2.11122C19.4835 1.39247 18.6068 0.893295 17.6435 0.678363C16.6802 0.463431 15.6745 0.542617 14.7567 0.905658C13.8388 1.2687 13.0511 1.89898 12.4954 2.71474C11.9398 3.5305 11.6417 4.49407 11.64 5.4811C11.6376 5.86163 11.6812 6.24118 11.77 6.61122C9.81182 6.51141 7.8965 6.00132 6.14801 5.11415C4.39952 4.22699 2.85688 2.98263 1.62 1.46132C0.98897 2.54404 0.794862 3.82657 1.07733 5.0475C1.3598 6.26844 2.09752 7.33559 3.13995 8.03115C2.35837 8.01015 1.59342 7.80103 0.909973 7.42128V7.4811C0.91264 8.62527 1.31318 9.73294 2.04297 10.6142C2.77276 11.4954 3.78634 12.0953 4.90997 12.3112C4.48598 12.4247 4.0489 12.4817 3.60999 12.4811C3.30111 12.4814 2.99297 12.4514 2.69 12.3913C3.00329 13.3705 3.61543 14.2268 4.44049 14.8402C5.26555 15.4536 6.26203 15.7932 7.28998 15.8112C5.54407 17.1805 3.38879 17.9236 1.16998 17.9213C0.779025 17.9185 0.388501 17.8951 0 17.8512C2.25135 19.2995 4.87302 20.0669 7.54999 20.0612" fill="black"/>
</svg>
