<svg width="28" height="28" viewBox="0 0 28 28" fill="none" xmlns="http://www.w3.org/2000/svg">
<path d="M20.96 8.77002C20.808 8.3894 20.5797 8.04395 20.289 7.755C19.9984 7.46606 19.6515 7.23976 19.27 7.09003C18.7451 6.89347 18.1905 6.78862 17.6301 6.78003C16.6901 6.78003 16.41 6.78003 14.05 6.78003C11.69 6.78003 11.4 6.78003 10.46 6.78003C9.89964 6.78862 9.34488 6.89347 8.82002 7.09003C8.44115 7.23174 8.09927 7.45735 7.82002 7.75C7.52658 8.03061 7.29789 8.37189 7.14998 8.75C6.95779 9.27919 6.85644 9.83706 6.85005 10.4C6.85005 11.33 6.85005 11.61 6.85005 13.98C6.85005 16.35 6.85005 16.63 6.85005 17.56C6.85644 18.123 6.95779 18.6808 7.14998 19.21C7.29789 19.5881 7.52658 19.9294 7.82002 20.21C8.09927 20.5027 8.44115 20.7283 8.82002 20.87C9.34488 21.0665 9.89964 21.1714 10.46 21.18C11.4 21.18 11.68 21.18 14.05 21.18C16.42 21.18 16.6901 21.18 17.6301 21.18C18.1905 21.1714 18.7451 21.0665 19.27 20.87C19.6515 20.7203 19.9984 20.494 20.289 20.205C20.5797 19.9161 20.808 19.5706 20.96 19.19C21.1522 18.6608 21.2536 18.1029 21.26 17.54C21.26 16.61 21.32 16.33 21.32 13.96C21.32 11.59 21.32 11.31 21.26 10.38C21.2491 9.8305 21.1478 9.28655 20.96 8.77002ZM14.05 18.55C13.1501 18.55 12.2704 18.2832 11.5222 17.7832C10.7739 17.2832 10.1908 16.5726 9.84639 15.7412C9.50201 14.9098 9.41191 13.995 9.58747 13.1124C9.76304 12.2298 10.1964 11.419 10.8327 10.7827C11.469 10.1463 12.2797 9.71298 13.1623 9.53741C14.0449 9.36185 14.9598 9.45195 15.7912 9.79633C16.6226 10.1407 17.3332 10.7239 17.8332 11.4722C18.3332 12.2204 18.6 13.1001 18.6 14C18.5974 15.2059 18.1172 16.3617 17.2645 17.2144C16.4118 18.0671 15.2559 18.5473 14.05 18.55ZM18.78 10.33C18.5675 10.332 18.3593 10.2707 18.1818 10.1539C18.0044 10.0371 17.8656 9.87005 17.7834 9.67413C17.7012 9.47821 17.6792 9.26226 17.7202 9.05377C17.7611 8.84529 17.8633 8.65366 18.0135 8.50342C18.1637 8.35318 18.3553 8.25111 18.5638 8.21014C18.7723 8.16918 18.9882 8.19122 19.1842 8.27344C19.3801 8.35566 19.5471 8.49433 19.6639 8.67181C19.7807 8.8493 19.842 9.05756 19.84 9.27002C19.8374 9.55034 19.7249 9.81844 19.5267 10.0167C19.3285 10.2149 19.0603 10.3274 18.78 10.33ZM17.0001 14C17.0001 14.5933 16.8241 15.1733 16.4945 15.6667C16.1648 16.16 15.6962 16.5446 15.148 16.7717C14.5998 16.9987 13.9967 17.0581 13.4147 16.9424C12.8328 16.8266 12.2983 16.5409 11.8787 16.1213C11.4592 15.7018 11.1734 15.1672 11.0577 14.5853C10.9419 14.0033 11.0013 13.4001 11.2283 12.8519C11.4554 12.3038 11.84 11.8353 12.3333 11.5056C12.8267 11.176 13.4067 11 14.0001 11C14.3959 10.9932 14.789 11.0662 15.1561 11.2146C15.5231 11.363 15.8565 11.5837 16.1364 11.8636C16.4164 12.1435 16.6371 12.477 16.7855 12.844C16.9338 13.211 17.0068 13.6042 17.0001 14ZM14.0001 0C11.2311 0 8.52428 0.821096 6.222 2.35944C3.91971 3.89778 2.12537 6.08429 1.06575 8.64246C0.00611973 11.2006 -0.271199 14.0155 0.268994 16.7313C0.809187 19.447 2.1426 21.9415 4.10054 23.8995C6.05847 25.8574 8.55301 27.1908 11.2687 27.731C13.9845 28.2712 16.7994 27.994 19.3576 26.9343C21.9158 25.8747 24.1022 24.0803 25.6406 21.778C27.1789 19.4757 28.0001 16.7689 28.0001 14C28.0001 10.2956 26.5319 6.74224 23.9172 4.11816C21.3025 1.49409 17.7544 0.0132299 14.05 0H14.0001ZM22.81 17.65C22.7978 18.3882 22.6591 19.1187 22.4 19.81C22.1824 20.3987 21.8415 20.934 21.4 21.38C20.9551 21.823 20.4195 22.1641 19.83 22.38C19.1425 22.6401 18.415 22.7788 17.68 22.79C16.74 22.84 16.43 22.85 14.03 22.85C11.63 22.85 11.3201 22.85 10.3701 22.79C9.63517 22.7778 8.90785 22.6391 8.22004 22.38C7.6309 22.1519 7.0956 21.8039 6.64802 21.3581C6.20045 20.9122 5.85039 20.3782 5.62007 19.79C5.37048 19.0961 5.23207 18.3671 5.21003 17.63C5.21003 16.69 5.15999 16.39 5.15999 13.98C5.15999 11.57 5.16003 11.27 5.21003 10.32C5.23312 9.58628 5.37151 8.86072 5.62007 8.16998C5.85039 7.58172 6.20045 7.04778 6.64802 6.60193C7.0956 6.15608 7.6309 5.80807 8.22004 5.58002C8.90785 5.32091 9.63517 5.18218 10.3701 5.16998C11.3701 5.16998 11.62 5.10999 14.03 5.10999C16.44 5.10999 16.74 5.10998 17.68 5.16998C18.415 5.18118 19.1425 5.31994 19.83 5.58002C20.4214 5.79203 20.9578 6.13372 21.4 6.58002C21.8434 7.02447 22.1847 7.56024 22.4 8.15002C22.6581 8.8381 22.7968 9.5652 22.81 10.3C22.81 11.25 22.81 11.55 22.81 13.96C22.81 16.37 22.9001 16.71 22.8601 17.65H22.81Z" fill="white"/>
</svg>
