<svg width="31" height="30" viewBox="0 0 31 30" fill="none" xmlns="http://www.w3.org/2000/svg">
<path d="M15.5899 0C12.6231 0 9.72309 0.879733 7.25635 2.52795C4.78962 4.17618 2.86701 6.51884 1.7317 9.25974C0.596381 12.0006 0.29928 15.0166 0.878058 17.9263C1.45684 20.836 2.88549 23.5088 4.98328 25.6066C7.08107 27.7044 9.75387 29.133 12.6636 29.7118C15.5733 30.2905 18.5892 29.9935 21.3301 28.8582C24.071 27.7229 26.4137 25.8003 28.0619 23.3335C29.7101 20.8668 30.5898 17.9667 30.5898 15C30.5898 11.0218 29.0096 7.20642 26.1965 4.39337C23.3835 1.58033 19.5681 0 15.5899 0ZM23.4299 19.1C21.1236 21.4214 18.4764 23.3773 15.5798 24.9C14.5098 25.35 14.6698 24.62 14.7098 24.37C14.7498 24.12 14.8599 23.51 14.8599 23.51C14.9249 23.2135 14.9249 22.9065 14.8599 22.61C14.7499 22.33 14.3099 22.18 13.9799 22.11C9.17986 21.48 5.61988 18.11 5.61988 14.11C5.61988 9.62999 10.1099 5.98999 15.6199 5.98999C21.1299 5.98999 25.6199 9.62999 25.6199 14.11C25.5829 15.9933 24.8113 17.7876 23.4699 19.11L23.4299 19.1ZM22.4299 12.1V12.81C22.4299 12.8349 22.425 12.8596 22.4154 12.8827C22.4059 12.9057 22.3919 12.9267 22.3743 12.9443C22.3566 12.962 22.3357 12.976 22.3126 12.9855C22.2896 12.9951 22.2648 13 22.2399 13H20.3298V13.73H22.2399C22.2648 13.73 22.2896 13.7349 22.3126 13.7444C22.3357 13.754 22.3566 13.768 22.3743 13.7856C22.3919 13.8033 22.4059 13.8242 22.4154 13.8473C22.425 13.8703 22.4299 13.895 22.4299 13.92V14.63C22.4314 14.6553 22.4274 14.6807 22.4183 14.7044C22.4093 14.7281 22.3954 14.7496 22.3774 14.7675C22.3595 14.7855 22.3379 14.7994 22.3142 14.8085C22.2905 14.8175 22.2652 14.8214 22.2399 14.82H20.3298V15.56H22.2399C22.2648 15.56 22.2896 15.5649 22.3126 15.5745C22.3357 15.584 22.3566 15.598 22.3743 15.6156C22.3919 15.6333 22.4059 15.6542 22.4154 15.6773C22.425 15.7003 22.4299 15.725 22.4299 15.75V16.46C22.4299 16.4849 22.425 16.5096 22.4154 16.5327C22.4059 16.5557 22.3919 16.5767 22.3743 16.5943C22.3566 16.612 22.3357 16.626 22.3126 16.6355C22.2896 16.6451 22.2648 16.65 22.2399 16.65H19.4299C19.3803 16.6476 19.3333 16.6268 19.2982 16.5916C19.2631 16.5565 19.2423 16.5096 19.2399 16.46V12.11C19.2399 12.0596 19.2599 12.0113 19.2955 11.9756C19.3312 11.94 19.3795 11.92 19.4299 11.92H22.2399C22.266 11.917 22.2925 11.9198 22.3174 11.9282C22.3423 11.9365 22.3651 11.9502 22.3842 11.9683C22.4032 11.9864 22.4181 12.0085 22.4277 12.033C22.4374 12.0575 22.4415 12.0837 22.4398 12.11L22.4299 12.1ZM12.0399 15.75V16.46C12.0399 16.5104 12.0199 16.5587 11.9843 16.5943C11.9486 16.63 11.9003 16.65 11.8499 16.65H9.03992C8.99032 16.6476 8.94333 16.6268 8.90821 16.5916C8.87309 16.5565 8.85228 16.5096 8.84986 16.46V12.11C8.84986 12.0596 8.86989 12.0113 8.90552 11.9756C8.94116 11.94 8.98953 11.92 9.03992 11.92H9.74988C9.77522 11.9185 9.80052 11.9225 9.82423 11.9315C9.84793 11.9405 9.86952 11.9545 9.88746 11.9724C9.9054 11.9904 9.91932 12.0119 9.92835 12.0356C9.93739 12.0593 9.94128 12.0847 9.93983 12.11V15.57H11.8499C11.8784 15.5681 11.907 15.5727 11.9335 15.5834C11.96 15.5941 11.9837 15.6106 12.0029 15.6318C12.0222 15.6529 12.0363 15.6781 12.0444 15.7055C12.0526 15.7329 12.0545 15.7618 12.0499 15.79L12.0399 15.75ZM13.7299 12.1V16.46C13.7299 16.5104 13.7098 16.5587 13.6742 16.5943C13.6386 16.63 13.5903 16.65 13.5399 16.65H12.8298C12.7802 16.6476 12.7334 16.6268 12.6982 16.5916C12.6631 16.5565 12.6423 16.5096 12.6399 16.46V12.11C12.6399 12.0596 12.6599 12.0113 12.6956 11.9756C12.7312 11.94 12.7794 11.92 12.8298 11.92H13.5399C13.5661 11.917 13.5925 11.9198 13.6174 11.9282C13.6424 11.9365 13.6651 11.9502 13.6842 11.9683C13.7033 11.9864 13.7182 12.0085 13.7278 12.033C13.7374 12.0575 13.7415 12.0837 13.7399 12.11L13.7299 12.1ZM18.5599 12.1V16.46C18.5575 16.5096 18.5367 16.5565 18.5016 16.5916C18.4665 16.6268 18.4195 16.6476 18.3699 16.65H17.5499V16.6L15.5499 13.9V16.49C15.5499 16.5149 15.545 16.5396 15.5354 16.5627C15.5259 16.5857 15.5119 16.6067 15.4943 16.6243C15.4766 16.642 15.4557 16.656 15.4326 16.6655C15.4096 16.6751 15.3848 16.68 15.3599 16.68H14.6499C14.6003 16.6776 14.5533 16.6568 14.5182 16.6216C14.4831 16.5865 14.4623 16.5396 14.4598 16.49V12.11C14.4598 12.0596 14.4799 12.0113 14.5155 11.9756C14.5511 11.94 14.5995 11.92 14.6499 11.92H15.5099L17.5099 14.62V12.11C17.5084 12.0847 17.5123 12.0593 17.5214 12.0356C17.5304 12.0119 17.5443 11.9904 17.5623 11.9724C17.5802 11.9545 17.6018 11.9405 17.6255 11.9315C17.6492 11.9225 17.6745 11.9185 17.6998 11.92H18.4099C18.455 11.9272 18.4959 11.9503 18.5253 11.9852C18.5546 12.0201 18.5704 12.0644 18.5698 12.11L18.5599 12.1Z" fill="#06C455"/>
</svg>
