<svg width="21" height="20" viewBox="0 0 21 20" fill="none" xmlns="http://www.w3.org/2000/svg">
<path d="M14.4144 11.3689L12.6897 10.9189L12.3989 11.2089C13.5722 9.89656 14.184 8.17839 14.1033 6.42197C14.0226 4.66555 13.2559 3.01037 11.9671 1.81052C10.6783 0.610683 8.96979 -0.0385336 7.20714 0.00177038C5.44449 0.0420744 3.76765 0.768696 2.53535 2.02618C1.30305 3.28367 0.61314 4.97216 0.613251 6.73043C0.613362 8.48869 1.3035 10.1771 2.53596 11.4344C3.76842 12.6918 5.44534 13.4182 7.20799 13.4583C8.97065 13.4983 10.679 12.8489 11.9677 11.6489L11.6769 11.9389L12.1181 13.6489L18.1347 19.6489L20.431 17.3689L14.4144 11.3689ZM7.30488 10.9489C6.43422 10.9489 5.58311 10.6914 4.85919 10.2091C4.13526 9.72668 3.57103 9.04105 3.23784 8.23888C2.90466 7.43672 2.81748 6.55403 2.98734 5.70246C3.15719 4.85088 3.57642 4.06866 4.19207 3.45471C4.80771 2.84076 5.59215 2.42265 6.44607 2.25326C7.3 2.08387 8.18507 2.17081 8.98945 2.50307C9.79383 2.83534 10.4814 3.39802 10.9651 4.11995C11.4488 4.84189 11.7069 5.69065 11.7069 6.55891C11.7043 7.7224 11.2397 8.83747 10.4147 9.66019C9.58971 10.4829 8.47158 10.9463 7.30488 10.9489Z" fill="#898786"/>
</svg>
