<svg width="28" height="28" viewBox="0 0 28 28" fill="none" xmlns="http://www.w3.org/2000/svg">
<path d="M23.85 28H4.13989C3.04271 27.9974 1.99128 27.5604 1.21545 26.7845C0.439625 26.0087 0.00264065 24.9572 0 23.86V4.15002C-3.19034e-06 3.05111 0.4358 1.99704 1.21191 1.21906C1.98803 0.441066 3.04098 0.002648 4.13989 0H23.85C24.9506 0 26.0061 0.437239 26.7844 1.21552C27.5627 1.99379 28 3.04938 28 4.15002V23.86C27.9974 24.959 27.5589 26.012 26.7809 26.7881C26.0029 27.5642 24.9489 28 23.85 28V28ZM4.13989 0.690002C3.22224 0.690002 2.34224 1.05455 1.69336 1.70343C1.04448 2.35231 0.679932 3.23238 0.679932 4.15002V23.86C0.679932 24.7777 1.04448 25.6578 1.69336 26.3066C2.34224 26.9555 3.22224 27.32 4.13989 27.32H23.85C24.7685 27.32 25.6496 26.9558 26.3 26.3073C26.9505 25.6587 27.3173 24.7786 27.3199 23.86V4.15002C27.3173 3.23146 26.9505 2.35141 26.3 1.70282C25.6496 1.05423 24.7685 0.689999 23.85 0.690002H4.13989Z" fill="white"/>
<path fill-rule="evenodd" clip-rule="evenodd" d="M22.7605 7.79016C22.7605 9.24819 21.5785 10.4302 20.1205 10.4302C19.3026 10.4302 18.5715 10.0582 18.0872 9.47412L10.4435 13.4065C10.4873 13.5973 10.5105 13.796 10.5105 14.0001C10.5105 14.2044 10.4872 14.4034 10.4433 14.5944L18.0885 18.5345C18.5728 17.9514 19.3033 17.5801 20.1205 17.5801C21.5785 17.5801 22.7605 18.7621 22.7605 20.2201C22.7605 21.6781 21.5785 22.8601 20.1205 22.8601C18.6625 22.8601 17.4805 21.6781 17.4805 20.2201C17.4805 19.9962 17.5083 19.7788 17.5608 19.5712L9.87756 15.7152C9.39337 16.2813 8.67377 16.6401 7.87048 16.6401C6.41248 16.6401 5.23047 15.4581 5.23047 14.0001C5.23047 12.542 6.41248 11.3601 7.87048 11.3601C8.67377 11.3601 9.39325 11.7189 9.87744 12.2849L17.5585 8.43003C17.5075 8.22516 17.4805 8.01082 17.4805 7.79016C17.4805 6.33213 18.6625 5.15015 20.1205 5.15015C21.5785 5.15015 22.7605 6.33213 22.7605 7.79016Z" fill="white"/>
</svg>
