<svg width="31" height="31" viewBox="0 0 31 31" fill="none" xmlns="http://www.w3.org/2000/svg">
<path d="M25.85 30.0495H4.76001C3.58591 30.0469 2.46071 29.5793 1.63049 28.7491C0.800279 27.9188 0.33272 26.7936 0.330078 25.6195V4.52948C0.33272 3.35538 0.800279 2.23015 1.63049 1.39993C2.46071 0.569719 3.58591 0.102129 4.76001 0.0994873H25.85C27.0241 0.102129 28.1494 0.569719 28.9796 1.39993C29.8098 2.23015 30.2774 3.35538 30.28 4.52948V25.6195C30.2774 26.7936 29.8098 27.9188 28.9796 28.7491C28.1494 29.5793 27.0241 30.0469 25.85 30.0495ZM4.76001 0.829498C3.77871 0.829498 2.83756 1.21929 2.14368 1.91318C1.44979 2.60706 1.06006 3.54818 1.06006 4.52948V25.6195C1.06006 26.6008 1.44979 27.5419 2.14368 28.2358C2.83756 28.9297 3.77871 29.3195 4.76001 29.3195H25.85C26.8313 29.3195 27.7724 28.9297 28.4663 28.2358C29.1602 27.5419 29.55 26.6008 29.55 25.6195V4.52948C29.55 3.54818 29.1602 2.60706 28.4663 1.91318C27.7724 1.21929 26.8313 0.829498 25.85 0.829498H4.76001Z" fill="black"/>
<path fill-rule="evenodd" clip-rule="evenodd" d="M24.6703 8.41949C24.6703 9.97694 23.4077 11.2395 21.8502 11.2395C20.9794 11.2395 20.2009 10.8448 19.6836 10.2246L11.4982 14.4417C11.5456 14.6467 11.5707 14.8602 11.5707 15.0795C11.5707 15.2986 11.5457 15.5117 11.4985 15.7164L19.6824 19.9259C20.1997 19.3048 20.9788 18.9095 21.8502 18.9095C23.4077 18.9095 24.6703 20.1721 24.6703 21.7296C24.6703 23.287 23.4077 24.5496 21.8502 24.5496C20.2928 24.5496 19.0303 23.287 19.0303 21.7296C19.0303 21.4883 19.0606 21.2541 19.1176 21.0306L10.8952 16.9108C10.3779 17.5159 9.60906 17.8995 8.75061 17.8995C7.19317 17.8995 5.93066 16.637 5.93066 15.0795C5.93066 13.5221 7.19317 12.2595 8.75061 12.2595C9.60822 12.2595 10.3764 12.6424 10.8937 13.2464L19.118 9.11998C19.0607 8.89601 19.0303 8.66131 19.0303 8.41949C19.0303 6.86205 20.2928 5.59949 21.8502 5.59949C23.4077 5.59949 24.6703 6.86205 24.6703 8.41949Z" fill="black"/>
</svg>
