<svg width="28" height="28" viewBox="0 0 28 28" fill="none" xmlns="http://www.w3.org/2000/svg">
<path d="M14 0C11.231 0 8.52432 0.821096 6.22203 2.35944C3.91974 3.89778 2.12528 6.08429 1.06566 8.64246C0.00602925 11.2006 -0.271168 14.0155 0.269025 16.7313C0.809218 19.447 2.14251 21.9415 4.10045 23.8995C6.05838 25.8574 8.55293 27.1908 11.2687 27.731C13.9844 28.2712 16.7994 27.994 19.3575 26.9343C21.9157 25.8747 24.1023 24.0803 25.6406 21.778C27.1789 19.4757 28 16.7689 28 14C28 10.287 26.525 6.72603 23.8995 4.10052C21.274 1.47502 17.713 0 14 0ZM22 10.76C22 10.92 22 11.09 22 11.25C22.0038 13.2123 21.4787 15.1395 20.48 16.8287C19.4813 18.5179 18.0458 19.9067 16.3246 20.8492C14.6034 21.7917 12.66 22.2529 10.6988 22.1844C8.73768 22.116 6.83131 21.5203 5.18004 20.46C5.4817 20.5002 5.78562 20.5203 6.08995 20.52C7.82321 20.5215 9.50669 19.9403 10.87 18.87C10.068 18.8544 9.29094 18.5887 8.64732 18.11C8.0037 17.6313 7.5257 16.9636 7.28001 16.2C7.51682 16.249 7.75817 16.2725 7.99998 16.27C8.33735 16.2673 8.67313 16.2236 8.99998 16.14C8.13174 15.9609 7.35164 15.4883 6.79075 14.8018C6.22986 14.1152 5.92241 13.2565 5.92003 12.37C6.45306 12.6674 7.04988 12.832 7.66002 12.85C6.84713 12.306 6.27166 11.4731 6.05064 10.5203C5.82962 9.56746 5.97956 8.56631 6.46995 7.72003C7.43997 8.90017 8.64518 9.86527 10.0088 10.554C11.3724 11.2426 12.8645 11.6398 14.39 11.72C14.3266 11.4309 14.2931 11.136 14.29 10.84C14.2925 10.0701 14.5257 9.31866 14.9596 8.68268C15.3935 8.04669 16.0082 7.55542 16.7241 7.27228C17.44 6.98913 18.2244 6.92714 18.9759 7.0943C19.7275 7.26146 20.4115 7.65009 20.9399 8.21002C21.8009 8.0435 22.6266 7.72884 23.38 7.28003C23.0973 8.17091 22.4954 8.92591 21.6899 9.40002C22.4522 9.31027 23.197 9.10804 23.9 8.79999C23.4032 9.55365 22.7808 10.2166 22.06 10.76H22Z" fill="white"/>
</svg>
