<svg width="31" height="30" viewBox="0 0 31 30" fill="none" xmlns="http://www.w3.org/2000/svg">
<path d="M15.7197 0C12.753 0 9.85297 0.879733 7.38624 2.52795C4.9195 4.17618 2.99689 6.51884 1.86158 9.25974C0.726264 12.0006 0.429162 15.0166 1.00794 17.9263C1.58672 20.836 3.01538 23.5088 5.11317 25.6066C7.21095 27.7044 9.88375 29.133 12.7935 29.7118C15.7032 30.2905 18.7191 29.9935 21.46 28.8582C24.2009 27.7229 26.5436 25.8003 28.1918 23.3335C29.84 20.8668 30.7197 17.9667 30.7197 15C30.7197 11.0218 29.1395 7.20642 26.3264 4.39337C23.5134 1.58033 19.698 0 15.7197 0ZM24.3297 11.51C24.3297 11.69 24.3297 11.86 24.3297 12.04C24.3314 14.139 23.7679 16.1997 22.6984 18.0058C21.6289 19.8118 20.0928 21.2966 18.2515 22.3042C16.4102 23.3118 14.3315 23.8051 12.2338 23.7322C10.1361 23.6593 8.09666 23.023 6.32972 21.89C6.66148 21.9307 6.99546 21.9507 7.32972 21.95C9.18196 21.9514 10.9812 21.3317 12.4397 20.19C11.5807 20.1757 10.748 19.8919 10.059 19.3788C9.36994 18.8656 8.85945 18.1489 8.59974 17.33C9.21633 17.4567 9.8544 17.4327 10.4597 17.26C9.53298 17.0756 8.69837 16.5768 8.09705 15.848C7.49573 15.1191 7.16468 14.2049 7.1598 13.26V13.21C7.73056 13.5265 8.36763 13.7046 9.01978 13.73C8.45664 13.3524 7.99507 12.842 7.67591 12.2438C7.35675 11.6456 7.18975 10.978 7.1897 10.3C7.18631 9.57527 7.37993 8.86325 7.74976 8.23999C8.78168 9.50918 10.0691 10.547 11.5283 11.2861C12.9876 12.0252 14.586 12.449 16.2197 12.53C16.0216 11.651 16.1172 10.7312 16.4917 9.91165C16.8662 9.0921 17.4991 8.41794 18.2933 7.99243C19.0876 7.56692 19.9995 7.41354 20.8893 7.55579C21.7791 7.69803 22.5977 8.12807 23.2197 8.78C24.1403 8.59754 25.0229 8.25935 25.8297 7.78C25.521 8.73078 24.878 9.53731 24.0198 10.05C24.8349 9.95428 25.6306 9.73511 26.3798 9.39999C25.8274 10.2196 25.1331 10.9342 24.3297 11.51Z" fill="#1D97EC"/>
</svg>
