<svg width="30" height="30" viewBox="0 0 30 30" fill="none" xmlns="http://www.w3.org/2000/svg">
<path d="M15 0C12.0333 0 9.13316 0.879855 6.66642 2.52808C4.19968 4.1763 2.27708 6.51887 1.14176 9.25977C0.00644696 12.0007 -0.290533 15.0168 0.288246 17.9265C0.867024 20.8362 2.29556 23.5089 4.39335 25.6067C6.49114 27.7045 9.16393 29.1331 12.0736 29.7119C14.9834 30.2907 17.9994 29.9937 20.7403 28.8584C23.4812 27.7231 25.8239 25.8005 27.4721 23.3337C29.1203 20.867 30 17.9667 30 15C30 11.0218 28.4197 7.2066 25.6066 4.39355C22.7936 1.58051 18.9783 0 15 0ZM23.61 11.51C23.61 11.68 23.61 11.86 23.61 12.04C23.6084 14.1377 23.0428 16.1964 21.9726 18.0005C20.9023 19.8046 19.3667 21.2879 17.5265 22.2949C15.6864 23.3019 13.6093 23.7956 11.5129 23.7244C9.41639 23.6532 7.37763 23.0197 5.61002 21.8901C5.94197 21.9278 6.27597 21.9446 6.61002 21.9402C8.46317 21.947 10.2641 21.3267 11.72 20.1802C10.8626 20.1651 10.0314 19.8822 9.34281 19.3711C8.65422 18.86 8.1428 18.1463 7.88004 17.3301C8.13373 17.3791 8.3917 17.4026 8.65006 17.4001C9.01457 17.3999 9.37749 17.3527 9.73002 17.26C8.80498 17.0722 7.97243 16.5726 7.37174 15.8445C6.77105 15.1164 6.43859 14.2039 6.42997 13.26V13.2102C7.00515 13.5233 7.64545 13.698 8.29996 13.7202C7.73635 13.3455 7.27431 12.837 6.95499 12.2402C6.63568 11.6435 6.46906 10.9769 6.47001 10.3C6.46953 9.57387 6.65919 8.86039 7.02006 8.23022C8.05257 9.50199 9.34125 10.5421 10.8023 11.283C12.2633 12.0238 13.8639 12.4486 15.5 12.53C15.4278 12.2219 15.3909 11.9066 15.3901 11.5901C15.3899 10.7657 15.6377 9.96033 16.1012 9.27856C16.5648 8.59679 17.2227 8.07011 17.9894 7.76709C18.7561 7.46407 19.5963 7.39869 20.4007 7.57935C21.2051 7.76 21.9365 8.17825 22.5 8.78003C23.4202 8.59626 24.3026 8.25816 25.11 7.78003C24.8147 8.73503 24.1725 9.54487 23.31 10.05C24.1234 9.95171 24.9183 9.73625 25.67 9.41016C25.1051 10.2267 24.4011 10.9373 23.59 11.51H23.61Z" fill="white"/>
</svg>
