<svg width="146" height="98" viewBox="0 0 146 98" fill="none" xmlns="http://www.w3.org/2000/svg">
<path d="M0 94.52V33.37C0.0134953 32.4949 0.373048 31.6606 1 31.0499L31.17 0.949951C31.7846 0.341027 32.6148 -0.000376532 33.48 3.11641e-07H142.13C142.995 3.11641e-07 143.824 0.343466 144.435 0.954834C145.046 1.5662 145.39 2.3954 145.39 3.26001V65.6899C145.394 66.1308 145.307 66.5678 145.135 66.9738C144.963 67.3797 144.709 67.746 144.39 68.0499L114.26 96.88C113.651 97.4614 112.842 97.787 112 97.7899H3.26996C2.4027 97.7899 1.57101 97.4455 0.957764 96.8323C0.34452 96.219 0 95.3873 0 94.52Z" fill="url(#paint0_linear_6_23395)"/>
<defs>
<linearGradient id="paint0_linear_6_23395" x1="0" y1="48.89" x2="145.39" y2="48.89" gradientUnits="userSpaceOnUse">
<stop/>
<stop offset="1" stop-color="#3E3A39"/>
</linearGradient>
</defs>
</svg>
