<svg width="146" height="98" viewBox="0 0 146 98" fill="none" xmlns="http://www.w3.org/2000/svg">
<path d="M0 94.52V33.37C0.0134953 32.4949 0.373048 31.6606 1 31.0499L31.1699 0.949951C31.7845 0.341027 32.6148 -0.000376532 33.48 3.11641e-07H142.17C143.035 3.11641e-07 143.864 0.343466 144.475 0.954834C145.086 1.5662 145.43 2.3954 145.43 3.26001V65.6899C145.434 66.1308 145.347 66.5678 145.175 66.9738C145.003 67.3797 144.749 67.746 144.43 68.0499L114.3 96.88C113.691 97.4614 112.882 97.787 112.04 97.7899H3.27002C2.40276 97.7899 1.57101 97.4455 0.957764 96.8323C0.34452 96.219 0 95.3873 0 94.52Z" fill="url(#paint0_linear_20_157)"/>
<defs>
<linearGradient id="paint0_linear_20_157" x1="0" y1="48.89" x2="145.39" y2="48.89" gradientUnits="userSpaceOnUse">
<stop stop-color="#BDBDBD"/>
<stop offset="1" stop-color="white"/>
</linearGradient>
</defs>
</svg>
