<svg width="257" height="257" viewBox="0 0 257 257" fill="none" xmlns="http://www.w3.org/2000/svg">
<path d="M196.89 256.97H6.07007C4.45929 256.967 2.9154 256.326 1.77734 255.186C0.639284 254.046 -2.17871e-06 252.501 0 250.89V60.08C0.000677264 58.4675 0.640834 56.9212 1.78003 55.78L55.78 1.78003C56.3429 1.2158 57.0115 0.768086 57.7477 0.462646C58.4838 0.157207 59.2731 1.68611e-05 60.0701 0H250.89C252.501 0.00264932 254.045 0.644368 255.183 1.7843C256.321 2.92424 256.96 4.46917 256.96 6.07996V196.89C256.959 198.502 256.319 200.049 255.18 201.19L201.18 255.19C200.617 255.754 199.948 256.202 199.212 256.507C198.476 256.813 197.687 256.97 196.89 256.97Z" fill="url(#paint0_linear_20_153)"/>
<defs>
<linearGradient id="paint0_linear_20_153" x1="5.65" y1="5.61" x2="235.63" y2="235.6" gradientUnits="userSpaceOnUse">
<stop/>
<stop offset="1" stop-color="#3E3A39"/>
</linearGradient>
</defs>
</svg>
