<svg width="147" height="99" viewBox="0 0 147 99" fill="none" xmlns="http://www.w3.org/2000/svg">
<path d="M0.790039 95.4401V34.29C0.803534 33.4149 1.16309 32.5808 1.79004 31.9701L31.9601 1.87012C32.5683 1.24558 33.3984 0.886238 34.2701 0.870117H142.96C143.826 0.872764 144.655 1.21846 145.266 1.83142C145.877 2.44438 146.22 3.27461 146.22 4.14014V66.5701C146.223 67.0108 146.135 67.4474 145.963 67.8531C145.791 68.2589 145.538 68.6254 145.22 68.9301L115.09 97.7601C114.482 98.3433 113.672 98.6692 112.83 98.67H4.10004C3.67061 98.6753 3.24434 98.596 2.84558 98.4365C2.44682 98.2771 2.08337 98.0407 1.776 97.7407C1.46863 97.4408 1.22337 97.0832 1.0542 96.6885C0.885025 96.2937 0.79526 95.8695 0.790039 95.4401Z" fill="url(#paint0_linear_6_23315)"/>
<defs>
<linearGradient id="paint0_linear_6_23315" x1="22.48" y1="97.59" x2="97.36" y2="27.52" gradientUnits="userSpaceOnUse">
<stop/>
<stop offset="1" stop-color="#3E3A39"/>
</linearGradient>
</defs>
</svg>
