<svg width="257" height="257" viewBox="0 0 257 257" fill="none" xmlns="http://www.w3.org/2000/svg">
<path d="M196.89 256.97H6.07001C4.45922 256.967 2.91528 256.326 1.77722 255.186C0.639162 254.046 -2.17871e-06 252.501 0 250.89V60.08C0.000677264 58.4675 0.640773 56.9212 1.77997 55.78L55.78 1.78003C56.3429 1.2158 57.0115 0.768086 57.7476 0.462646C58.4838 0.157207 59.273 1.68611e-05 60.07 0H250.89C252.501 0.00264932 254.045 0.644368 255.183 1.7843C256.321 2.92424 256.96 4.46917 256.96 6.07996V196.89C256.959 198.502 256.319 200.049 255.18 201.19L201.18 255.19C200.617 255.754 199.948 256.202 199.212 256.507C198.476 256.813 197.687 256.97 196.89 256.97Z" fill="url(#paint0_linear_20_113)"/>
<defs>
<linearGradient id="paint0_linear_20_113" x1="5.65" y1="5.61" x2="235.63" y2="235.6" gradientUnits="userSpaceOnUse">
<stop stop-color="#E5E2DE"/>
<stop offset="0.04" stop-color="#D6D4D1"/>
<stop offset="0.11" stop-color="#AFB0AE"/>
<stop offset="0.21" stop-color="#717576"/>
<stop offset="0.26" stop-color="#4C5355"/>
<stop offset="0.37" stop-color="#8E9293"/>
<stop offset="0.46" stop-color="#BEC0C1"/>
<stop offset="0.53" stop-color="#DCDCDD"/>
<stop offset="0.57" stop-color="#E7E7E7"/>
<stop offset="0.63" stop-color="#DDDEDE"/>
<stop offset="0.74" stop-color="#C3C5C8"/>
<stop offset="0.87" stop-color="#999EA2"/>
<stop offset="0.88" stop-color="#969BA0"/>
<stop offset="1" stop-color="#B0B0B1"/>
</linearGradient>
</defs>
</svg>
