<svg width="146" height="98" viewBox="0 0 146 98" fill="none" xmlns="http://www.w3.org/2000/svg">
<path d="M0.439941 94.52V33.37C0.453437 32.4949 0.812989 31.6606 1.43994 31.0499L31.61 0.949951C32.2245 0.341027 33.0548 -0.000376532 33.92 3.11641e-07H142.57C143.435 3.11641e-07 144.264 0.343466 144.875 0.954834C145.486 1.5662 145.83 2.3954 145.83 3.26001V65.6899C145.834 66.1308 145.747 66.5678 145.575 66.9738C145.403 67.3797 145.149 67.746 144.83 68.0499L114.7 96.88C114.091 97.4614 113.282 97.787 112.44 97.7899H3.70996C2.8427 97.7899 2.01095 97.4455 1.39771 96.8323C0.784461 96.219 0.439941 95.3873 0.439941 94.52Z" fill="url(#paint0_linear_6_23306)"/>
<defs>
<linearGradient id="paint0_linear_6_23306" x1="-87.11" y1="48.89" x2="349.06" y2="48.89" gradientUnits="userSpaceOnUse">
<stop stop-color="#004CBE"/>
<stop offset="0.33" stop-color="#A854D0"/>
<stop offset="0.57" stop-color="#8DC8D9"/>
<stop offset="0.67" stop-color="#0098B2"/>
<stop offset="0.91" stop-color="#438BA1"/>
<stop offset="1" stop-color="#00808D"/>
</linearGradient>
</defs>
</svg>
