<svg width="8" height="13" viewBox="0 0 8 13" fill="none" xmlns="http://www.w3.org/2000/svg">
<path d="M3.62988 9.01013L4.19983 8.67004L7.06989 6.9801L7.26984 6.86011L6.89984 7.39001L5.65985 9.14001L3.65985 11.9701V8.97009L3.62988 9.01013Z" fill="#62688E"/>
<path d="M3.63037 0.0198975L4.38037 1.26001L6.38037 4.52991L7.29034 6.04993L6.95032 5.8999L6.68036 5.77991L6.28033 5.59998L6.08032 5.5L5.71033 5.33997L5.50037 5.23999L5.18036 5.09998L4.99036 5.01001L4.60034 4.82996L4.40033 4.73999L4.02032 4.56995L3.73035 4.43994H3.61035V0L3.63037 0.0198975Z" fill="#62688E"/>
<path d="M3.63007 0.0198975V4.45996L3.44006 4.53992L3.14001 4.67993L2.73004 4.85999L2.55005 4.94995L2.15002 5.13L1.96002 5.21997L1.56006 5.3999L1.36005 5.48999L0.980042 5.65991L0.690063 5.78992L0.320068 5.95996L0.0200195 6.09998L0.290039 5.65991C0.460039 5.37991 0.630039 5.09995 0.790039 4.81995L1.44006 3.76001C1.63006 3.43001 1.82002 3.11001 2.02002 2.76001L2.63007 1.76001L3.35004 0.569946L3.68005 0.0100098L3.63007 0.0198975Z" fill="#8991B1"/>
<path d="M3.62988 4.45984H3.74988L4.03986 4.58984L4.41986 4.75989L4.61987 4.84985L5.00983 5.02979L5.19983 5.11987L5.51984 5.25989L5.72986 5.35986L6.09985 5.51978L6.29987 5.61987L6.69983 5.7998L6.96985 5.9198L7.30988 6.06982L6.98987 6.25989L6.70984 6.42981L6.48987 6.55981L6.27985 6.67981L6.11987 6.77979L5.72986 7.00989L5.41986 7.18982L5.04987 7.39978L4.74988 7.58984L4.43988 7.76978L4.24988 7.88977L4.00983 8.02979L3.69983 8.20984V4.36987L3.62988 4.45984Z" fill="#454A75"/>
<path d="M3.62982 4.45996V8.29993L2.20978 7.45996L0.00976562 6.15991L0.309814 6.0199L0.67981 5.84998L0.969788 5.71997L1.34979 5.54993L1.5498 5.45996L1.94977 5.27991L2.13977 5.18994L2.53979 5.01001L2.71979 4.91992L3.12982 4.73999L3.42981 4.59998L3.61981 4.5199L3.62982 4.45996Z" fill="#62688E"/>
<path d="M3.63 9.01001V12.01L3.57996 11.9399L2.65997 10.6499L2.03998 9.7699L1.13995 8.5L0.429993 7.5L0 6.88989L0.130005 6.95996C0.530005 7.19996 0.929966 7.43992 1.33997 7.66992C1.74997 7.89992 1.88998 7.99991 2.16998 8.15991L3.25 8.79993L3.63 9.01001Z" fill="#8991B1"/>
</svg>
