<svg width="11" height="10" viewBox="0 0 11 10" fill="none" xmlns="http://www.w3.org/2000/svg">
<path d="M4.8577 3.4552C4.85261 3.40533 4.85261 3.35505 4.8577 3.30518C4.88239 3.01904 4.88239 2.73133 4.8577 2.44519C4.84725 2.34524 4.81261 2.24927 4.75687 2.16565C4.70112 2.08203 4.62587 2.01329 4.53763 1.96521L4.17764 1.76514L3.44766 1.33521C3.32738 1.25341 3.18924 1.2016 3.04483 1.1842C2.90042 1.1668 2.75397 1.18423 2.6177 1.23511C2.40787 1.30677 2.20915 1.40782 2.02762 1.53516L1.37771 1.92517C1.27509 1.97463 1.18545 2.0474 1.116 2.1377C1.04654 2.22799 0.999166 2.33332 0.97769 2.44519C0.972781 2.51177 0.972781 2.57857 0.97769 2.64514C0.97769 3.05514 0.97769 3.45511 0.97769 3.86511C0.974229 4.01569 1.0014 4.16546 1.05765 4.30518C1.1447 4.472 1.28084 4.60813 1.44766 4.69519L2.55765 5.34509C2.68916 5.42872 2.84185 5.47314 2.99771 5.47314C3.15356 5.47314 3.30613 5.42872 3.43765 5.34509L7.53763 2.9552C7.66159 2.88121 7.8033 2.84204 7.94766 2.84204C8.09202 2.84204 8.23373 2.88121 8.35769 2.9552L10.3577 4.1051C10.498 4.17417 10.6263 4.26535 10.7377 4.37512C10.8721 4.50763 10.9508 4.6865 10.9577 4.87512C10.9577 5.13512 10.9577 5.40516 10.9577 5.66516V5.84509C10.9577 6.34509 10.9577 6.84509 10.9577 7.34509C10.9641 7.5184 10.9204 7.68997 10.8317 7.83899C10.743 7.98801 10.6131 8.10822 10.4577 8.18518L9.21768 8.88513L8.40762 9.3551C8.27033 9.44796 8.10841 9.49768 7.94266 9.49768C7.77691 9.49768 7.61499 9.44796 7.47769 9.3551L5.33768 8.12512L5.21768 8.05518C5.15104 8.01909 5.0954 7.96565 5.05667 7.90051C5.01794 7.83537 4.99759 7.76096 4.99771 7.68518C4.99771 7.34518 4.99771 7.01518 4.99771 6.68518C4.99912 6.65728 5.0083 6.63027 5.0242 6.6073C5.0401 6.58433 5.06206 6.56631 5.08768 6.55518L5.62771 6.2251L5.83768 6.11511C5.94768 6.05511 6.01772 6.1151 6.00772 6.2251C5.99772 6.3351 6.00772 6.4552 6.00772 6.5752C5.96982 6.84216 6.03403 7.1136 6.18765 7.33521C6.30142 7.47758 6.44475 7.59354 6.6077 7.67517L7.51761 8.18518C7.67015 8.27946 7.84812 8.32422 8.02713 8.31348C8.20613 8.30274 8.37743 8.23697 8.51761 8.12512C8.67761 8.01512 8.85762 7.9352 9.02762 7.83521C9.19762 7.73521 9.38765 7.63515 9.55765 7.52515C9.64777 7.47219 9.72622 7.40138 9.78811 7.31714C9.85001 7.2329 9.89403 7.13699 9.91763 7.03516C9.92727 6.95545 9.92727 6.87488 9.91763 6.79517C9.91763 6.49517 9.91763 6.19513 9.91763 5.88513V5.51514C9.92213 5.31801 9.85464 5.12597 9.72769 4.9751L9.52762 4.80518L8.64761 4.28516L8.40762 4.15515C8.27418 4.07692 8.12236 4.03564 7.96768 4.03564C7.813 4.03564 7.66106 4.07692 7.52762 4.15515L6.04764 5.00513L3.38772 6.53516C3.26908 6.60866 3.13227 6.64758 2.9927 6.64758C2.85314 6.64758 2.71633 6.60866 2.59769 6.53516L0.417632 5.30518C0.310471 5.25272 0.217455 5.17549 0.146147 5.07983C0.0748395 4.98418 0.0273858 4.87281 0.00771942 4.75513C-0.00257314 4.65205 -0.00257314 4.54827 0.00771942 4.44519C0.00771942 4.14519 0.00771942 3.84517 0.00771942 3.54517V2.38513C0.00771942 2.26513 0.00771942 2.13513 0.00771942 2.00513C0.00217371 1.88578 0.0300874 1.76736 0.0884079 1.66309C0.146728 1.55882 0.233083 1.4729 0.337675 1.41516C0.787675 1.14516 1.24766 0.895132 1.69766 0.635132L2.55765 0.135132C2.68932 0.0469952 2.84427 0 3.00271 0C3.16116 0 3.31599 0.0469952 3.44766 0.135132L4.16763 0.565186L5.6077 1.39514C5.71537 1.4561 5.80466 1.5449 5.86624 1.65222C5.92782 1.75954 5.95938 1.88141 5.95767 2.00513C5.94774 2.16497 5.94774 2.32526 5.95767 2.48511C5.96953 2.60438 5.94653 2.72457 5.89151 2.83105C5.83649 2.93754 5.75175 3.02586 5.64761 3.08521L5.15762 3.34509L4.8577 3.4552Z" fill="#8A52FF"/>
</svg>
