<svg width="269" height="269" viewBox="0 0 269 269" fill="none" xmlns="http://www.w3.org/2000/svg">
<g filter="url(#filter0_d_20_2079)">
<path d="M196.89 257H6.07001C4.45922 256.997 2.91531 256.355 1.77725 255.215C0.639193 254.075 -2.17871e-06 252.53 0 250.919V60.0869C0.000677264 58.4743 0.640804 56.9278 1.78 55.7865L55.78 1.78024C56.3429 1.21595 57.0116 0.768175 57.7477 0.4627C58.4839 0.157225 59.273 1.68631e-05 60.07 0H250.93C252.541 0.00264963 254.085 0.644443 255.223 1.78451C256.361 2.92458 257 4.46969 257 6.08066V196.913C256.999 198.526 256.359 200.072 255.22 201.213L201.22 255.22C200.652 255.789 199.977 256.239 199.234 256.545C198.49 256.85 197.694 257.005 196.89 257Z" fill="#DFDFDF"/>
</g>
<defs>
<filter id="filter0_d_20_2079" x="0" y="0" width="269" height="269" filterUnits="userSpaceOnUse" color-interpolation-filters="sRGB">
<feFlood flood-opacity="0" result="BackgroundImageFix"/>
<feColorMatrix in="SourceAlpha" type="matrix" values="0 0 0 0 0 0 0 0 0 0 0 0 0 0 0 0 0 0 127 0" result="hardAlpha"/>
<feOffset dx="6" dy="6"/>
<feGaussianBlur stdDeviation="3"/>
<feComposite in2="hardAlpha" operator="out"/>
<feColorMatrix type="matrix" values="0 0 0 0 0 0 0 0 0 0 0 0 0 0 0 0 0 0 0.36 0"/>
<feBlend mode="normal" in2="BackgroundImageFix" result="effect1_dropShadow_20_2079"/>
<feBlend mode="normal" in="SourceGraphic" in2="effect1_dropShadow_20_2079" result="shape"/>
</filter>
</defs>
</svg>
